HIERARCHY
ROOT Root
{
  OFFSET 0.0 0.0 0.0
  CHANNELS 6 Xposition Yposition Zposition Zrotation Yrotation Xrotation
  JOINT Hips
  {
    OFFSET 0.0 100.0 0.0
    CHANNELS 6 Xposition Yposition Zposition Zrotation Yrotation Xrotation
    JOINT Spine1
    {
      OFFSET -0.013727 5.003763 -0.053727
      CHANNELS 3 Zrotation Yrotation Xrotation
      JOINT Spine2
      {
        OFFSET -0.0 7.125301 -0.029825
        CHANNELS 3 Zrotation Yrotation Xrotation
        JOINT Chest
        {
          OFFSET -1e-06 7.550063 -0.815971
          CHANNELS 3 Zrotation Yrotation Xrotation
          JOINT Neck1
          {
            OFFSET -0.181677 26.311295 -0.553348
            CHANNELS 3 Zrotation Yrotation Xrotation
            JOINT Neck2
            {
              OFFSET -3e-06 7.709397 2.302585
              CHANNELS 3 Zrotation Yrotation Xrotation
              JOINT Head
              {
                OFFSET -5e-06 6.128916 1.953709
                CHANNELS 3 Zrotation Yrotation Xrotation
                JOINT HeadEnd
                {
                  OFFSET 0.003598 16.065403 -1.835379
                  CHANNELS 3 Zrotation Yrotation Xrotation
                }
                JOINT Jaw
                {
                  OFFSET 0.002637 0.475592 3.094941
                  CHANNELS 3 Zrotation Yrotation Xrotation
                }
                JOINT LeftEye
                {
                  OFFSET 3.206381 5.380205 7.586883
                  CHANNELS 3 Zrotation Yrotation Xrotation
                }
                JOINT RightEye
                {
                  OFFSET -3.22244 5.361869 7.558234
                  CHANNELS 3 Zrotation Yrotation Xrotation
                }
              }
            }
          }
          JOINT LeftShoulder
          {
            OFFSET 1.621652 23.237164 5.113413
            CHANNELS 3 Zrotation Yrotation Xrotation
            JOINT LeftArm
            {
              OFFSET 14.919846 2e-06 -5.502326
              CHANNELS 3 Zrotation Yrotation Xrotation
              JOINT LeftForeArm
              {
                OFFSET 28.739307 0.0 -0.002588
                CHANNELS 3 Zrotation Yrotation Xrotation
                JOINT LeftHand
                {
                  OFFSET 27.093981 -1e-06 0.002609
                  CHANNELS 3 Zrotation Yrotation Xrotation
                  JOINT LeftHandThumb1
                  {
                    OFFSET 2.276482 -1.392045 3.191413
                    CHANNELS 3 Zrotation Yrotation Xrotation
                    JOINT LeftHandThumb2
                    {
                      OFFSET 4.012836 -1.828127 1.641654
                      CHANNELS 3 Zrotation Yrotation Xrotation
                      JOINT LeftHandThumb3
                      {
                        OFFSET 2.798515 0.0 -3e-06
                        CHANNELS 3 Zrotation Yrotation Xrotation
                        JOINT LeftHandThumbEnd
                        {
                          OFFSET 3.180793 -4e-06 4e-06
                          CHANNELS 3 Zrotation Yrotation Xrotation
                        }
                      }
                    }
                  }
                  JOINT LeftHandIndex1
                  {
                    OFFSET 3.247555 -0.531998 2.296169
                    CHANNELS 3 Zrotation Yrotation Xrotation
                    JOINT LeftHandIndex2
                    {
                      OFFSET 6.364578 0.01206 0.1786
                      CHANNELS 3 Zrotation Yrotation Xrotation
                      JOINT LeftHandIndex3
                      {
                        OFFSET 3.662364 0.0 0.0
                        CHANNELS 3 Zrotation Yrotation Xrotation
                        JOINT LeftHandIndex4
                        {
                          OFFSET 2.329242 4e-06 4e-06
                          CHANNELS 3 Zrotation Yrotation Xrotation
                          JOINT LeftHandIndexEnd
                          {
                            OFFSET 2.759615 -0.180537 -0.113024
                            CHANNELS 3 Zrotation Yrotation Xrotation
                          }
                        }
                      }
                    }
                  }
                  JOINT LeftHandMiddle1
                  {
                    OFFSET 3.163495 0.240981 1.000332
                    CHANNELS 3 Zrotation Yrotation Xrotation
                    JOINT LeftHandMiddle2
                    {
                      OFFSET 6.19078 -0.259278 -1.002548
                      CHANNELS 3 Zrotation Yrotation Xrotation
                      JOINT LeftHandMiddle3
                      {
                        OFFSET 4.35652 -4e-06 -1e-06
                        CHANNELS 3 Zrotation Yrotation Xrotation
                        JOINT LeftHandMiddle4
                        {
                          OFFSET 2.996877 -8e-06 0.0
                          CHANNELS 3 Zrotation Yrotation Xrotation
                          JOINT LeftHandMiddleEnd
                          {
                            OFFSET 2.304287 -0.294569 -0.031741
                            CHANNELS 3 Zrotation Yrotation Xrotation
                          }
                        }
                      }
                    }
                  }
                  JOINT LeftHandRing1
                  {
                    OFFSET 2.882643 -0.053652 -0.322543
                    CHANNELS 3 Zrotation Yrotation Xrotation
                    JOINT LeftHandRing2
                    {
                      OFFSET 5.854541 -0.486202 -1.373841
                      CHANNELS 3 Zrotation Yrotation Xrotation
                      JOINT LeftHandRing3
                      {
                        OFFSET 4.350578 0.0 3e-06
                        CHANNELS 3 Zrotation Yrotation Xrotation
                        JOINT LeftHandRing4
                        {
                          OFFSET 2.651321 7e-06 2e-06
                          CHANNELS 3 Zrotation Yrotation Xrotation
                          JOINT LeftHandRingEnd
                          {
                            OFFSET 1.936105 0.077687 -7.1e-05
                            CHANNELS 3 Zrotation Yrotation Xrotation
                          }
                        }
                      }
                    }
                  }
                  JOINT LeftHandPinky1
                  {
                    OFFSET 2.8655 -0.310005 -1.600378
                    CHANNELS 3 Zrotation Yrotation Xrotation
                    JOINT LeftHandPinky2
                    {
                      OFFSET 5.087849 -1.331141 -1.77123
                      CHANNELS 3 Zrotation Yrotation Xrotation
                      JOINT LeftHandPinky3
                      {
                        OFFSET 3.070974 4e-06 0.0
                        CHANNELS 3 Zrotation Yrotation Xrotation
                        JOINT LeftHandPinky4
                        {
                          OFFSET 1.549672 0.0 1e-06
                          CHANNELS 3 Zrotation Yrotation Xrotation
                          JOINT LeftHandPinkyEnd
                          {
                            OFFSET 1.944893 -0.157802 0.057219
                            CHANNELS 3 Zrotation Yrotation Xrotation
                          }
                        }
                      }
                    }
                  }
                }
              }
            }
          }
          JOINT RightShoulder
          {
            OFFSET -1.380118 23.180309 5.214158
            CHANNELS 3 Zrotation Yrotation Xrotation
            JOINT RightArm
            {
              OFFSET -15.037196 1.2e-05 -5.545604
              CHANNELS 3 Zrotation Yrotation Xrotation
              JOINT RightForeArm
              {
                OFFSET -28.736639 2e-06 -0.002597
                CHANNELS 3 Zrotation Yrotation Xrotation
                JOINT RightHand
                {
                  OFFSET -27.133619 -0.0 0.002613
                  CHANNELS 3 Zrotation Yrotation Xrotation
                  JOINT RightHandThumb1
                  {
                    OFFSET -2.274032 -1.383988 3.163127
                    CHANNELS 3 Zrotation Yrotation Xrotation
                    JOINT RightHandThumb2
                    {
                      OFFSET -4.011429 -1.827466 1.640914
                      CHANNELS 3 Zrotation Yrotation Xrotation
                      JOINT RightHandThumb3
                      {
                        OFFSET -2.794935 -4e-06 -3e-06
                        CHANNELS 3 Zrotation Yrotation Xrotation
                        JOINT RightHandThumbEnd
                        {
                          OFFSET -3.183852 4e-06 1e-06
                          CHANNELS 3 Zrotation Yrotation Xrotation
                        }
                      }
                    }
                  }
                  JOINT RightHandIndex1
                  {
                    OFFSET -3.253266 -0.520057 2.282866
                    CHANNELS 3 Zrotation Yrotation Xrotation
                    JOINT RightHandIndex2
                    {
                      OFFSET -6.341917 0.012471 0.178266
                      CHANNELS 3 Zrotation Yrotation Xrotation
                      JOINT RightHandIndex3
                      {
                        OFFSET -3.654871 -8e-06 -0.0
                        CHANNELS 3 Zrotation Yrotation Xrotation
                        JOINT RightHandIndex4
                        {
                          OFFSET -2.327586 0.0 1e-06
                          CHANNELS 3 Zrotation Yrotation Xrotation
                          JOINT RightHandIndexEnd
                          {
                            OFFSET -2.76179 -0.180656 -0.113078
                            CHANNELS 3 Zrotation Yrotation Xrotation
                          }
                        }
                      }
                    }
                  }
                  JOINT RightHandMiddle1
                  {
                    OFFSET -3.168106 0.246593 1.00103
                    CHANNELS 3 Zrotation Yrotation Xrotation
                    JOINT RightHandMiddle2
                    {
                      OFFSET -6.180828 -0.258836 -1.000895
                      CHANNELS 3 Zrotation Yrotation Xrotation
                      JOINT RightHandMiddle3
                      {
                        OFFSET -4.348901 0.0 -0.0
                        CHANNELS 3 Zrotation Yrotation Xrotation
                        JOINT RightHandMiddle4
                        {
                          OFFSET -3.00024 -4e-06 -2e-06
                          CHANNELS 3 Zrotation Yrotation Xrotation
                          JOINT RightHandMiddleEnd
                          {
                            OFFSET -2.30252 -0.29437 -0.031706
                            CHANNELS 3 Zrotation Yrotation Xrotation
                          }
                        }
                      }
                    }
                  }
                  JOINT RightHandRing1
                  {
                    OFFSET -2.88569 -0.067952 -0.308858
                    CHANNELS 3 Zrotation Yrotation Xrotation
                    JOINT RightHandRing2
                    {
                      OFFSET -5.854198 -0.48613 -1.373731
                      CHANNELS 3 Zrotation Yrotation Xrotation
                      JOINT RightHandRing3
                      {
                        OFFSET -4.33881 -4e-06 -0.0
                        CHANNELS 3 Zrotation Yrotation Xrotation
                        JOINT RightHandRing4
                        {
                          OFFSET -2.654903 -4e-06 4e-06
                          CHANNELS 3 Zrotation Yrotation Xrotation
                          JOINT RightHandRingEnd
                          {
                            OFFSET -1.933568 0.077527 -5.2e-05
                            CHANNELS 3 Zrotation Yrotation Xrotation
                          }
                        }
                      }
                    }
                  }
                  JOINT RightHandPinky1
                  {
                    OFFSET -2.866425 -0.342796 -1.584145
                    CHANNELS 3 Zrotation Yrotation Xrotation
                    JOINT RightHandPinky2
                    {
                      OFFSET -5.091371 -1.332055 -1.772385
                      CHANNELS 3 Zrotation Yrotation Xrotation
                      JOINT RightHandPinky3
                      {
                        OFFSET -3.062664 -4e-06 1e-06
                        CHANNELS 3 Zrotation Yrotation Xrotation
                        JOINT RightHandPinky4
                        {
                          OFFSET -1.546529 4e-06 -2e-06
                          CHANNELS 3 Zrotation Yrotation Xrotation
                          JOINT RightHandPinkyEnd
                          {
                            OFFSET -1.945119 -0.157718 0.057211
                            CHANNELS 3 Zrotation Yrotation Xrotation
                          }
                        }
                      }
                    }
                  }
                }
              }
            }
          }
        }
      }
    }
    JOINT LeftLeg
    {
      OFFSET 10.043214 -8.434526 2.595655
      CHANNELS 3 Zrotation Yrotation Xrotation
      JOINT LeftShin
      {
        OFFSET -1e-06 -43.221752 -0.802913
        CHANNELS 3 Zrotation Yrotation Xrotation
        JOINT LeftFoot
        {
          OFFSET 1e-06 -42.155094 -3.481523
          CHANNELS 3 Zrotation Yrotation Xrotation
          JOINT LeftToeBase
          {
            OFFSET 0.0 -5.059472 13.231529
            CHANNELS 3 Zrotation Yrotation Xrotation
            JOINT LeftToeEnd
            {
              OFFSET -0.009607 -1.647619 6.513017
              CHANNELS 3 Zrotation Yrotation Xrotation
            }
          }
        }
      }
    }
    JOINT RightLeg
    {
      OFFSET -10.047278 -8.29526 2.620317
      CHANNELS 3 Zrotation Yrotation Xrotation
      JOINT RightShin
      {
        OFFSET 1e-06 -43.362206 -0.805556
        CHANNELS 3 Zrotation Yrotation Xrotation
        JOINT RightFoot
        {
          OFFSET 2e-06 -42.117393 -3.478398
          CHANNELS 3 Zrotation Yrotation Xrotation
          JOINT RightToeBase
          {
            OFFSET -0.0 -5.079609 13.284196
            CHANNELS 3 Zrotation Yrotation Xrotation
            JOINT RightToeEnd
            {
              OFFSET 0.009532 -1.634378 6.460591
              CHANNELS 3 Zrotation Yrotation Xrotation
            }
          }
        }
      }
    }
  }
}
MOTION
Frames: 5
Frame Time: 0.03333333333333333
0.0 0.0 0.0 0.0 -0.0 0.0 3.382226 48.602867 -5.823397 -9.142181 -2.59719 37.259544 -1.50869 1.250332 25.481316 -0.581139 2.946424 3.218895 -0.44709 3.019582 13.932044 -2.722895 3.530292 0.156623 0.367888 1.787025 -3.630192 3.545053 1.854934 -0.094703 7.7e-05 -2.2e-05 6e-06 -0.21947 0.049563 -0.122159 0.479247 -3.612609 -10.203284 -0.922406 3.716858 -10.313782 9.991948 -19.565382 6.205613 -30.493414 -52.356144 -0.849362 0.345734 -27.897997 0.124025 80.076614 -6.512223 -4.077736 -5.882098 9.861279 0.702587 -10.936857 -0.360578 7.156199 1e-06 8.774819 -2e-06 -14.758493 17.774954 6.3993 -1.84403 2.498503 -2.507277 -10.163587 4.678939 4.621104 -20.976004 -6e-06 1e-06 -21.226259 2.451692 -3.594 1e-06 -5e-06 -1e-06 -1.36268 2.240798 -0.746323 -21.334888 0.584906 3.00832 -13.821197 -5e-06 3e-06 -23.887144 -0.249081 -0.839482 -58.52634 2.961412 -1.203311 -0.294024 1.679687 0.833256 -14.218191 0.093213 1.300577 -34.212009 -0.287567 0.96717 -20.033192 0.964533 1.212842 -1e-06 -0.0 -0.0 -3.440384 0.788232 0.501655 -15.928168 -3.167309 2.999703 -6.33882 -1e-06 1e-06 -18.123426 3.648177 -4.905667 -6e-06 1e-06 -3e-06 -19.833584 47.931419 -0.336439 -2.022197 22.616199 -40.351559 0.813722 24.993492 -0.114563 -50.481098 -19.949339 -15.227707 2.243538 -5.255033 -3.180156 14.282872 -0.82659 6.952495 -5e-06 -12.690593 -1e-06 14.911755 -17.581024 2.919467 1.665664 -1.955918 -2.878296 4.727793 -4.170582 4.993919 11.020514 7e-06 -1e-06 12.109038 -3.735709 -2.86678 1e-06 -0.0 -1e-06 1.291983 -1.928547 -1.498089 14.800114 0.56747 3.865603 14.242558 -1.341734 -6.66065 19.63195 0.143928 -0.648242 48.614487 -0.430022 -5.96607 0.353028 -1.511149 -0.031941 20.222769 3.684309 2.316629 18.787251 7e-06 3e-06 10.751617 -0.479867 1.397907 0.0 -0.0 0.0 3.273804 0.305947 -0.580111 21.48679 11.830364 2.26613 8.162919 5e-06 1e-06 18.399063 -3.798979 -4.940567 2e-06 1e-06 -1e-06 6.614114 9.043269 -66.172585 0.465158 1.863181 127.434845 -5.877904 -29.313789 39.013298 1.181405 -1.662987 -7.79083 1e-06 0.0 1e-06 2.015099 -1.191062 -26.878649 0.525508 2.235694 92.231949 -0.596575 16.624893 35.97879 -1.377354 0.819823 -9.247712 -0.0 0.0 -4e-06 
0.0 0.0 0.0 0.0 -0.0 0.0 3.304269 48.656799 -4.241179 -9.740523 -2.757809 38.354652 -1.273138 1.193868 25.134781 -0.669791 3.002122 2.879242 -0.285137 3.056734 13.635099 -2.995155 3.061897 0.394018 1.036224 1.876037 -3.679135 3.516351 1.966411 -0.303868 7.7e-05 -2.2e-05 6e-06 -0.201076 0.03797 -0.143881 0.448352 -3.617794 -10.207925 -0.852645 3.700693 -10.292288 9.611982 -19.464937 6.642714 -32.788815 -51.401436 -0.431901 0.166704 -28.123375 0.077515 80.550331 -8.428501 -3.674092 -5.882104 9.861276 0.702592 -10.936872 -0.360572 7.156202 1e-06 8.774817 -0.0 -15.03094 17.759172 6.324012 -1.84403 2.498503 -2.507276 -10.163595 4.678941 4.621106 -20.976015 -2e-06 6e-06 -21.226276 2.451698 -3.593995 1e-06 -6e-06 -1e-06 -1.362681 2.240795 -0.746323 -21.334908 0.58491 3.008323 -13.821211 -2e-06 5e-06 -23.887165 -0.249074 -0.839478 -58.900753 2.740557 -0.972644 -0.294025 1.679686 0.833255 -14.218204 0.093216 1.300581 -34.212032 -0.28756 0.967172 -20.033207 0.964538 1.212844 -0.0 -0.0 -1e-06 -3.440387 0.788232 0.501656 -15.928181 -3.167306 2.999706 -6.338824 -0.0 2e-06 -18.123442 3.648181 -4.905664 -5e-06 1e-06 -2e-06 -19.239616 47.003513 0.209275 -1.118412 24.69108 -40.566105 0.668611 25.685083 -0.183225 -51.869583 -19.193897 -14.618961 2.243541 -5.25503 -3.180155 14.282879 -0.826596 6.9525 -2e-06 -12.690593 3e-06 15.158031 -17.650658 2.983654 1.665664 -1.95592 -2.878295 4.727797 -4.170586 4.99392 11.020515 1e-06 2e-06 12.109042 -3.735714 -2.86678 0.0 -1e-06 -1e-06 1.291985 -1.928548 -1.498087 14.800117 0.567465 3.865604 14.24256 -1.341736 -6.660649 19.631952 0.143923 -0.648245 49.170677 -0.444512 -5.894691 0.353029 -1.511149 -0.03194 20.222775 3.684302 2.31663 18.787262 -2e-06 0.0 10.75162 -0.479871 1.397903 0.0 -0.0 0.0 3.273804 0.305945 -0.58011 21.486794 11.830359 2.266129 8.162922 1e-06 1e-06 18.399071 -3.798988 -4.940571 2e-06 1e-06 -1e-06 6.408474 9.155617 -65.66272 0.420287 1.86384 126.851547 -4.314659 -26.643911 37.211624 1.208314 -1.661 -8.522279 1e-06 -0.0 1e-06 2.517401 -1.222944 -26.470047 0.476114 2.225787 90.069778 -1.311668 15.653952 36.528885 -1.390072 0.819797 -7.694726 -0.0 -0.0 -5e-06 
0.0 0.0 0.0 0.0 -0.0 0.0 3.167346 48.734303 -2.587586 -9.685656 -2.871877 39.400677 -1.302258 1.180791 24.804688 -0.652068 2.954941 2.671293 -0.387977 2.66521 13.248868 -2.599538 2.69488 0.622525 1.166704 1.830134 -3.703093 3.343819 2.087619 -0.30121 7.7e-05 -2.2e-05 6e-06 -0.198496 0.032743 -0.147557 0.430144 -3.643919 -10.289518 -0.825139 3.712641 -10.360811 9.319017 -19.626486 7.131444 -34.689655 -50.013405 -0.020285 0.243871 -28.780634 0.054203 80.598778 -9.443685 -3.381648 -5.882101 9.861279 0.702589 -10.936863 -0.360575 7.1562 -0.0 8.774817 -1e-06 -15.237032 17.885197 6.290198 -1.844031 2.498504 -2.507276 -10.163593 4.678941 4.621106 -20.976007 -4e-06 5e-06 -21.226269 2.451696 -3.593996 1e-06 -6e-06 1e-06 -1.36268 2.240796 -0.746323 -21.3349 0.584909 3.008322 -13.821205 -3e-06 4e-06 -23.887156 -0.249078 -0.839481 -59.374161 2.808368 -0.821908 -0.294025 1.679686 0.833256 -14.218197 0.093214 1.30058 -34.212021 -0.287564 0.967173 -20.033197 0.964535 1.212843 -0.0 -0.0 0.0 -3.440386 0.788232 0.501657 -15.928174 -3.167308 2.999706 -6.338823 -1e-06 2e-06 -18.123436 3.64818 -4.905664 -6e-06 0.0 -2e-06 -18.782135 45.907169 0.541971 -0.070944 27.082361 -40.53944 0.572235 26.156265 -0.227546 -53.856529 -18.434557 -13.260193 2.243537 -5.255029 -3.180151 14.282871 -0.826593 6.952491 -4e-06 -12.690585 2e-06 15.230314 -17.726246 3.034423 1.665664 -1.955918 -2.878294 4.72779 -4.17058 4.993916 11.020508 5e-06 -1e-06 12.109034 -3.73571 -2.866779 0.0 -1e-06 -1e-06 1.291982 -1.928546 -1.498087 14.800108 0.567469 3.865601 14.242549 -1.341733 -6.660648 19.631937 0.143928 -0.648244 49.223625 -0.471457 -6.040689 0.353028 -1.511148 -0.031939 20.222761 3.684307 2.316628 18.787243 7e-06 0.0 10.751613 -0.479867 1.397903 1e-06 -1e-06 0.0 3.273802 0.305946 -0.58011 21.486782 11.830356 2.266128 8.162913 3e-06 -1e-06 18.399054 -3.798978 -4.940567 2e-06 0.0 -0.0 5.79139 8.896269 -65.028442 0.382606 1.922542 125.92585 -2.62749 -23.88509 36.161453 1.211829 -1.687391 -8.820324 1e-06 0.0 1e-06 2.444792 -1.424634 -25.81094 0.47839 2.214784 87.591812 -1.2649 15.127439 37.833019 -1.380769 0.857057 -7.177771 -0.0 0.0 -3e-06 
0.0 0.0 0.0 0.0 -0.0 0.0 2.930475 48.824482 -0.8693 -9.178154 -2.845637 40.523911 -1.452473 1.139285 24.462181 -0.668399 2.673713 2.502364 -0.500867 2.067053 12.779357 -1.944654 2.302361 0.813214 1.103193 1.708727 -3.722863 3.086771 2.216341 -0.373939 7.7e-05 -2.3e-05 6e-06 -0.141439 0.016948 -0.137972 0.490043 -3.69762 -10.413582 -0.768089 3.731242 -10.473265 8.840646 -20.132074 7.70627 -35.992348 -48.150066 0.022919 0.337597 -29.680481 0.036054 80.647156 -10.166134 -2.996614 -5.882103 9.861284 0.702589 -10.936866 -0.360576 7.156206 1e-06 8.774825 -1e-06 -15.402924 17.959965 6.307882 -1.844032 2.498504 -2.507278 -10.163595 4.678944 4.621109 -20.976017 -4e-06 2e-06 -21.226276 2.451696 -3.593999 -1e-06 -6e-06 1e-06 -1.362681 2.240798 -0.746323 -21.334906 0.584907 3.008322 -13.821208 -4e-06 3e-06 -23.887161 -0.24908 -0.839482 -59.677322 2.815358 -0.643582 -0.294025 1.679687 0.833256 -14.218205 0.093214 1.30058 -34.212036 -0.287564 0.967172 -20.033209 0.964537 1.212844 -0.0 0.0 0.0 -3.440387 0.788233 0.501656 -15.928181 -3.16731 2.999708 -6.338824 -1e-06 1e-06 -18.123444 3.648182 -4.905671 -4e-06 0.0 -1e-06 -18.546419 44.506516 0.64044 1.181426 29.933533 -40.466614 0.475977 26.476936 -0.248204 -56.209518 -17.79933 -11.76515 2.243541 -5.255035 -3.180158 14.282883 -0.826592 6.952498 -4e-06 -12.6906 -1e-06 15.343553 -17.817297 3.050958 1.665666 -1.955921 -2.878298 4.727797 -4.170585 4.993922 11.02052 3e-06 -2e-06 12.109045 -3.735712 -2.866783 0.0 -1e-06 -1e-06 1.291985 -1.928549 -1.498089 14.80012 0.56747 3.865603 14.242565 -1.341735 -6.660659 19.631956 0.143928 -0.648243 49.276741 -0.445602 -6.137451 0.353028 -1.51115 -0.03194 20.222784 3.684313 2.316629 18.787266 7e-06 -1e-06 10.751623 -0.479866 1.397903 1e-06 -0.0 0.0 3.273806 0.305946 -0.58011 21.486803 11.830376 2.266129 8.162923 2e-06 -1e-06 18.399075 -3.798983 -4.940573 2e-06 1e-06 -0.0 4.700576 8.426861 -64.305008 0.360185 2.023543 124.735802 -0.593914 -21.553509 34.755386 1.170829 -1.687733 -9.392796 1e-06 1e-06 1e-06 2.137209 -1.826221 -25.04826 0.486299 2.210491 84.834244 -1.045668 14.630807 39.318672 -1.397112 0.857405 -6.60092 -0.0 -0.0 -2e-06 
0.0 0.0 0.0 0.0 -0.0 0.0 2.626711 48.830391 0.911886 -8.433266 -2.748563 41.66333 -1.676476 1.04044 24.145664 -0.573271 2.332122 2.441199 -0.755335 1.188875 12.176652 -1.1687 1.958198 0.798997 0.721535 1.536072 -3.644568 3.100784 2.305819 -0.273576 7.7e-05 -2.2e-05 7e-06 -0.105413 0.006803 -0.129335 0.534575 -3.731191 -10.518433 -0.738003 3.737421 -10.56398 8.196469 -20.7885 8.262428 -36.7948 -45.817867 0.321051 0.585962 -30.873043 0.008342 80.49456 -10.10844 -2.057082 -5.8821 9.861277 0.70259 -10.936857 -0.360573 7.156197 -1e-06 8.774817 -0.0 -15.248898 18.031729 6.398796 -1.844031 2.498501 -2.507275 -10.163588 4.67894 4.621103 -20.976004 -5e-06 1e-06 -21.226263 2.451693 -3.593999 -0.0 -6e-06 0.0 -1.36268 2.240796 -0.746323 -21.33489 0.584908 3.008319 -13.821199 -3e-06 1e-06 -23.887142 -0.249081 -0.839483 -59.774456 2.978025 -0.766482 -0.294024 1.679684 0.833257 -14.218194 0.093215 1.300578 -34.212013 -0.287565 0.967169 -20.033192 0.964535 1.212842 0.0 0.0 1e-06 -3.440384 0.788233 0.501656 -15.928168 -3.167306 2.999703 -6.33882 -2e-06 0.0 -18.123426 3.648179 -4.905666 -4e-06 -0.0 -2e-06 -18.455601 43.031071 0.463331 2.499125 33.064953 -39.60976 0.464396 26.560217 -0.241526 -58.488911 -17.331884 -10.442472 2.243541 -5.255037 -3.180158 14.282894 -0.826595 6.952506 -3e-06 -12.690601 -2e-06 15.322643 -17.906994 3.086627 1.665665 -1.955922 -2.878298 4.7278 -4.170588 4.993925 11.020528 4e-06 -0.0 12.109056 -3.735716 -2.866784 0.0 -1e-06 -1e-06 1.291986 -1.928547 -1.49809 14.800131 0.56747 3.865611 14.242576 -1.341738 -6.660657 19.631969 0.143926 -0.648243 49.170662 -0.427569 -6.229396 0.353028 -1.511151 -0.031941 20.222797 3.684309 2.31663 18.787273 4e-06 1e-06 10.751631 -0.47987 1.397907 2e-06 -1e-06 0.0 3.273807 0.305948 -0.580111 21.486816 11.830373 2.266137 8.162927 3e-06 0.0 18.399084 -3.798983 -4.940573 2e-06 1e-06 -0.0 3.516651 7.863685 -63.317287 0.33863 2.057499 123.291183 1.234786 -20.238857 33.927006 1.170566 -1.700035 -9.58153 1e-06 1e-06 1e-06 1.69025 -2.230472 -24.167614 0.476671 2.254758 81.926201 -0.68024 14.050309 41.076645 -1.352859 0.93834 -6.149154 -0.0 0.0 -2e-06 
